<svg viewBox="0 0 1280 800" xmlns="http://www.w3.org/2000/svg" font-family="Inter,-apple-system,sans-serif">
  <!-- Background -->
  <rect width="1280" height="800" fill="#F6F6F7"/>

  <!-- Shopify admin frame top bar -->
  <rect width="1280" height="56" fill="#1A1A1A"/>
  <rect x="16" y="16" width="24" height="24" rx="4" fill="#0A84FF"/>
  <text x="48" y="32" fill="white" font-size="14" font-weight="600">ContentClaude</text>
  <rect x="900" y="14" width="180" height="28" rx="4" fill="#2C2C2C"/>
  <text x="990" y="32" fill="#999" font-size="12" text-anchor="middle">contentpilot-dev2.myshopify.com</text>
  <circle cx="1240" cy="28" r="14" fill="#3A3A3A"/>
  <text x="1240" y="33" fill="white" font-size="11" font-weight="700" text-anchor="middle">W</text>

  <!-- Left nav -->
  <rect x="0" y="56" width="220" height="744" fill="#FFFFFF"/>
  <rect x="0" y="56" width="1" height="744" fill="#E5E7EB"/>

  <!-- Nav items -->
  <rect x="8" y="68" width="204" height="36" rx="6" fill="#EAF4FF"/>
  <rect x="20" y="80" width="8" height="12" rx="2" fill="#0A84FF"/>
  <text x="36" y="91" fill="#0A84FF" font-size="13" font-weight="600">Dashboard</text>

  <text x="36" y="126" fill="#6B7280" font-size="13">Products</text>
  <text x="36" y="158" fill="#6B7280" font-size="13">Optimise Store</text>
  <text x="36" y="190" fill="#6B7280" font-size="13">Review &amp; Publish</text>
  <text x="36" y="222" fill="#6B7280" font-size="13">SEO Audit</text>
  <text x="36" y="254" fill="#6B7280" font-size="13">Blog Generator</text>
  <text x="36" y="286" fill="#6B7280" font-size="13">Collections</text>
  <text x="36" y="318" fill="#6B7280" font-size="13">Analytics</text>
  <text x="36" y="350" fill="#6B7280" font-size="13">Jobs</text>
  <text x="36" y="382" fill="#6B7280" font-size="13">Settings</text>
  <text x="36" y="414" fill="#6B7280" font-size="13">Plans &amp; Billing</text>

  <!-- Main content area -->
  <rect x="220" y="56" width="1060" height="744" fill="#F6F6F7"/>

  <!-- Page title -->
  <text x="252" y="100" fill="#1A1A1A" font-size="22" font-weight="700">Dashboard</text>
  <text x="252" y="120" fill="#6B7280" font-size="13">Welcome back! Your store content at a glance.</text>

  <!-- Stat cards row -->
  <!-- Card 1 -->
  <rect x="252" y="136" width="226" height="100" rx="8" fill="white" stroke="#E5E7EB" stroke-width="1"/>
  <text x="270" y="162" fill="#6B7280" font-size="12">Products Optimised</text>
  <text x="270" y="196" fill="#1A1A1A" font-size="32" font-weight="700">24</text>
  <rect x="270" y="212" width="90" height="6" rx="3" fill="#EAF4FF"/>
  <rect x="270" y="212" width="54" height="6" rx="3" fill="#0A84FF"/>

  <!-- Card 2 -->
  <rect x="490" y="136" width="226" height="100" rx="8" fill="white" stroke="#E5E7EB" stroke-width="1"/>
  <text x="508" y="162" fill="#6B7280" font-size="12">Coverage</text>
  <text x="508" y="196" fill="#1A1A1A" font-size="32" font-weight="700">60%</text>
  <rect x="508" y="212" width="90" height="6" rx="3" fill="#EAF4FF"/>
  <rect x="508" y="212" width="54" height="6" rx="3" fill="#0A84FF"/>

  <!-- Card 3 -->
  <rect x="728" y="136" width="226" height="100" rx="8" fill="white" stroke="#E5E7EB" stroke-width="1"/>
  <text x="746" y="162" fill="#6B7280" font-size="12">This Month</text>
  <text x="746" y="196" fill="#1A1A1A" font-size="32" font-weight="700">18</text>
  <text x="746" y="214" fill="#6B7280" font-size="11">of 25 generations used</text>

  <!-- Card 4 -->
  <rect x="966" y="136" width="226" height="100" rx="8" fill="white" stroke="#E5E7EB" stroke-width="1"/>
  <text x="984" y="162" fill="#6B7280" font-size="12">Draft Content</text>
  <text x="984" y="196" fill="#1A1A1A" font-size="32" font-weight="700">8</text>
  <text x="984" y="214" fill="#6B7280" font-size="11">awaiting review</text>

  <!-- Recent Activity -->
  <rect x="252" y="256" width="580" height="320" rx="8" fill="white" stroke="#E5E7EB" stroke-width="1"/>
  <text x="272" y="284" fill="#1A1A1A" font-size="15" font-weight="600">Recent Activity</text>
  <text x="752" y="284" fill="#0A84FF" font-size="12" text-anchor="end">View all activity →</text>

  <!-- Activity items -->
  <rect x="264" y="296" width="556" height="56" rx="6" fill="#F9FAFB"/>
  <text x="280" y="318" fill="#1A1A1A" font-size="13" font-weight="500">Organic Argan Oil Serum</text>
  <text x="280" y="336" fill="#6B7280" font-size="11">3 content types · 2 minutes ago</text>
  <rect x="720" y="308" width="60" height="22" rx="4" fill="#D4F1E4"/>
  <text x="750" y="323" fill="#1B7E4A" font-size="11" text-anchor="middle">Published</text>

  <rect x="264" y="358" width="556" height="56" rx="6" fill="#F9FAFB"/>
  <text x="280" y="380" fill="#1A1A1A" font-size="13" font-weight="500">Vitamin C Brightening Moisturiser</text>
  <text x="280" y="398" fill="#6B7280" font-size="11">2 content types · 15 minutes ago</text>
  <rect x="720" y="370" width="44" height="22" rx="4" fill="#E8F4FF"/>
  <text x="742" y="385" fill="#0A84FF" font-size="11" text-anchor="middle">Draft</text>

  <rect x="264" y="420" width="556" height="56" rx="6" fill="#F9FAFB"/>
  <text x="280" y="442" fill="#1A1A1A" font-size="13" font-weight="500">Hydrating Hyaluronic Face Mist</text>
  <text x="280" y="460" fill="#6B7280" font-size="11">3 content types · 1 hour ago</text>
  <rect x="720" y="432" width="60" height="22" rx="4" fill="#D4F1E4"/>
  <text x="750" y="447" fill="#1B7E4A" font-size="11" text-anchor="middle">Published</text>

  <rect x="264" y="482" width="556" height="56" rx="6" fill="#F9FAFB"/>
  <text x="280" y="504" fill="#1A1A1A" font-size="13" font-weight="500">Retinol Night Repair Cream</text>
  <text x="280" y="522" fill="#6B7280" font-size="11">2 content types · 3 hours ago</text>
  <rect x="720" y="494" width="60" height="22" rx="4" fill="#D4F1E4"/>
  <text x="750" y="509" fill="#1B7E4A" font-size="11" text-anchor="middle">Published</text>

  <!-- Quick Actions panel -->
  <rect x="848" y="256" width="344" height="320" rx="8" fill="white" stroke="#E5E7EB" stroke-width="1"/>
  <text x="868" y="284" fill="#1A1A1A" font-size="15" font-weight="600">Quick Actions</text>

  <rect x="860" y="296" width="320" height="52" rx="6" fill="#0A84FF"/>
  <text x="1020" y="327" fill="white" font-size="13" font-weight="600" text-anchor="middle">Generate Product Content</text>

  <rect x="860" y="356" width="320" height="52" rx="6" fill="#F9FAFB" stroke="#E5E7EB" stroke-width="1"/>
  <text x="1020" y="387" fill="#1A1A1A" font-size="13" font-weight="500" text-anchor="middle">Optimise Entire Store</text>

  <rect x="860" y="416" width="320" height="52" rx="6" fill="#F9FAFB" stroke="#E5E7EB" stroke-width="1"/>
  <text x="1020" y="447" fill="#1A1A1A" font-size="13" font-weight="500" text-anchor="middle">SEO Audit</text>

  <rect x="860" y="476" width="320" height="52" rx="6" fill="#F9FAFB" stroke="#E5E7EB" stroke-width="1"/>
  <text x="1020" y="507" fill="#1A1A1A" font-size="13" font-weight="500" text-anchor="middle">Generate Blog Post</text>

  <!-- Monthly Usage bar -->
  <rect x="252" y="596" width="940" height="80" rx="8" fill="white" stroke="#E5E7EB" stroke-width="1"/>
  <text x="272" y="622" fill="#1A1A1A" font-size="13" font-weight="600">Monthly Usage — Free Plan</text>
  <text x="1172" y="622" fill="#6B7280" font-size="12" text-anchor="end">7 remaining</text>
  <rect x="272" y="632" width="900" height="8" rx="4" fill="#EAF4FF"/>
  <rect x="272" y="632" width="648" height="8" rx="4" fill="#0A84FF"/>
  <text x="272" y="656" fill="#6B7280" font-size="11">18 of 25 generations used this month</text>
  <rect x="960" y="640" width="152" height="28" rx="4" fill="#0A84FF"/>
  <text x="1036" y="658" fill="white" font-size="11" font-weight="600" text-anchor="middle">Upgrade Plan →</text>

  <!-- Watermark / branding -->
  <text x="640" y="788" fill="#9CA3AF" font-size="11" text-anchor="middle">ContentClaude — AI Product Content for Shopify · contentclaude.fly.dev</text>
</svg>
